<svg xmlns="http://www.w3.org/2000/svg" version="1.1" xmlns:xlink="http://www.w3.org/1999/xlink" xmlns:svgjs="http://svgjs.com/svgjs" width="1440" height="800" preserveAspectRatio="none" viewBox="0 0 1440 800"><g mask="url(&quot;#SvgjsMask1809&quot;)" fill="none"><rect width="1440" height="800" x="0" y="0" fill="url(#SvgjsLinearGradient1810)"></rect><path d="M65.77 277.68L130.73 315.18L130.73 390.18L65.77 427.68L0.82 390.18L0.82 315.18zM195.68 277.68L260.63 315.18L260.63 390.18L195.68 427.68L130.73 390.18L130.73 315.18zM195.68 727.68L260.63 765.18L260.63 840.18L195.68 877.68L130.73 840.18L130.73 765.18zM325.59 277.68L390.54 315.18L390.54 390.18L325.59 427.68L260.63 390.18L260.63 315.18zM260.63 615.18L325.59 652.68L325.59 727.68L260.63 765.18L195.68 727.68L195.68 652.68zM325.59 727.68L390.54 765.18L390.54 840.18L325.59 877.68L260.63 840.18L260.63 765.18zM390.54 165.18L455.5 202.68L455.5 277.68L390.54 315.18L325.59 277.68L325.59 202.68zM455.5 277.68L520.45 315.18L520.45 390.18L455.5 427.68L390.54 390.18L390.54 315.18zM455.5 502.68L520.45 540.18L520.45 615.18L455.5 652.68L390.54 615.18L390.54 540.18zM650.36 390.18L715.31 427.68L715.31 502.68L650.36 540.18L585.4 502.68L585.4 427.68zM715.31 727.68L780.27 765.18L780.27 840.18L715.31 877.68L650.36 840.18L650.36 765.18zM845.22 52.68L910.17 90.18L910.17 165.18L845.22 202.68L780.26 165.18L780.26 90.18zM845.22 502.68L910.17 540.18L910.17 615.18L845.22 652.68L780.26 615.18L780.26 540.18zM910.17 -59.82L975.13 -22.32L975.13 52.68L910.17 90.18L845.22 52.68L845.22 -22.32zM975.13 52.68L1040.08 90.18L1040.08 165.18L975.13 202.68L910.17 165.18L910.17 90.18zM975.13 727.68L1040.08 765.18L1040.08 840.18L975.13 877.68L910.17 840.18L910.17 765.18zM1105.03 52.68L1169.99 90.18L1169.99 165.18L1105.03 202.68L1040.08 165.18L1040.08 90.18zM1040.08 615.18L1105.03 652.68L1105.03 727.68L1040.08 765.18L975.13 727.68L975.13 652.68zM1105.03 727.68L1169.99 765.18L1169.99 840.18L1105.03 877.68L1040.08 840.18L1040.08 765.18zM1169.99 -59.82L1234.94 -22.32L1234.94 52.68L1169.99 90.18L1105.03 52.68L1105.03 -22.32zM1169.99 165.18L1234.94 202.68L1234.94 277.68L1169.99 315.18L1105.03 277.68L1105.03 202.68zM1364.85 52.68L1429.8 90.18L1429.8 165.18L1364.85 202.68L1299.89 165.18L1299.89 90.18zM1364.85 277.68L1429.8 315.18L1429.8 390.18L1364.85 427.68L1299.89 390.18L1299.89 315.18zM1299.89 615.18L1364.85 652.68L1364.85 727.68L1299.89 765.18L1234.94 727.68L1234.94 652.68zM1364.85 727.68L1429.8 765.18L1429.8 840.18L1364.85 877.68L1299.89 840.18L1299.89 765.18zM1429.8 390.18L1494.76 427.68L1494.76 502.68L1429.8 540.18L1364.85 502.68L1364.85 427.68zM1494.76 502.68L1559.71 540.18L1559.71 615.18L1494.76 652.68L1429.8 615.18L1429.8 540.18zM1429.8 615.18L1494.76 652.68L1494.76 727.68L1429.8 765.18L1364.85 727.68L1364.85 652.68z" stroke="rgba(210, 214, 218, 1)" stroke-width="2"></path><path d="M58.27 277.68 a7.5 7.5 0 1 0 15 0 a7.5 7.5 0 1 0 -15 0zM123.23 315.18 a7.5 7.5 0 1 0 15 0 a7.5 7.5 0 1 0 -15 0zM123.23 390.18 a7.5 7.5 0 1 0 15 0 a7.5 7.5 0 1 0 -15 0zM58.27 427.68 a7.5 7.5 0 1 0 15 0 a7.5 7.5 0 1 0 -15 0zM-6.68 390.18 a7.5 7.5 0 1 0 15 0 a7.5 7.5 0 1 0 -15 0zM-6.68 315.18 a7.5 7.5 0 1 0 15 0 a7.5 7.5 0 1 0 -15 0zM188.18 277.68 a7.5 7.5 0 1 0 15 0 a7.5 7.5 0 1 0 -15 0zM253.13 315.18 a7.5 7.5 0 1 0 15 0 a7.5 7.5 0 1 0 -15 0zM253.13 390.18 a7.5 7.5 0 1 0 15 0 a7.5 7.5 0 1 0 -15 0zM188.18 427.68 a7.5 7.5 0 1 0 15 0 a7.5 7.5 0 1 0 -15 0zM188.18 727.68 a7.5 7.5 0 1 0 15 0 a7.5 7.5 0 1 0 -15 0zM253.13 765.18 a7.5 7.5 0 1 0 15 0 a7.5 7.5 0 1 0 -15 0zM253.13 840.18 a7.5 7.5 0 1 0 15 0 a7.5 7.5 0 1 0 -15 0zM188.18 877.68 a7.5 7.5 0 1 0 15 0 a7.5 7.5 0 1 0 -15 0zM123.23 840.18 a7.5 7.5 0 1 0 15 0 a7.5 7.5 0 1 0 -15 0zM123.23 765.18 a7.5 7.5 0 1 0 15 0 a7.5 7.5 0 1 0 -15 0zM318.09 277.68 a7.5 7.5 0 1 0 15 0 a7.5 7.5 0 1 0 -15 0zM383.04 315.18 a7.5 7.5 0 1 0 15 0 a7.5 7.5 0 1 0 -15 0zM383.04 390.18 a7.5 7.5 0 1 0 15 0 a7.5 7.5 0 1 0 -15 0zM318.09 427.68 a7.5 7.5 0 1 0 15 0 a7.5 7.5 0 1 0 -15 0zM253.13 615.18 a7.5 7.5 0 1 0 15 0 a7.5 7.5 0 1 0 -15 0zM318.09 652.68 a7.5 7.5 0 1 0 15 0 a7.5 7.5 0 1 0 -15 0zM318.09 727.68 a7.5 7.5 0 1 0 15 0 a7.5 7.5 0 1 0 -15 0zM188.18 652.68 a7.5 7.5 0 1 0 15 0 a7.5 7.5 0 1 0 -15 0zM383.04 765.18 a7.5 7.5 0 1 0 15 0 a7.5 7.5 0 1 0 -15 0zM383.04 840.18 a7.5 7.5 0 1 0 15 0 a7.5 7.5 0 1 0 -15 0zM318.09 877.68 a7.5 7.5 0 1 0 15 0 a7.5 7.5 0 1 0 -15 0zM383.04 165.18 a7.5 7.5 0 1 0 15 0 a7.5 7.5 0 1 0 -15 0zM448 202.68 a7.5 7.5 0 1 0 15 0 a7.5 7.5 0 1 0 -15 0zM448 277.68 a7.5 7.5 0 1 0 15 0 a7.5 7.5 0 1 0 -15 0zM318.09 202.68 a7.5 7.5 0 1 0 15 0 a7.5 7.5 0 1 0 -15 0zM512.95 315.18 a7.5 7.5 0 1 0 15 0 a7.5 7.5 0 1 0 -15 0zM512.95 390.18 a7.5 7.5 0 1 0 15 0 a7.5 7.5 0 1 0 -15 0zM448 427.68 a7.5 7.5 0 1 0 15 0 a7.5 7.5 0 1 0 -15 0zM448 502.68 a7.5 7.5 0 1 0 15 0 a7.5 7.5 0 1 0 -15 0zM512.95 540.18 a7.5 7.5 0 1 0 15 0 a7.5 7.5 0 1 0 -15 0zM512.95 615.18 a7.5 7.5 0 1 0 15 0 a7.5 7.5 0 1 0 -15 0zM448 652.68 a7.5 7.5 0 1 0 15 0 a7.5 7.5 0 1 0 -15 0zM383.04 615.18 a7.5 7.5 0 1 0 15 0 a7.5 7.5 0 1 0 -15 0zM383.04 540.18 a7.5 7.5 0 1 0 15 0 a7.5 7.5 0 1 0 -15 0zM642.86 390.18 a7.5 7.5 0 1 0 15 0 a7.5 7.5 0 1 0 -15 0zM707.81 427.68 a7.5 7.5 0 1 0 15 0 a7.5 7.5 0 1 0 -15 0zM707.81 502.68 a7.5 7.5 0 1 0 15 0 a7.5 7.5 0 1 0 -15 0zM642.86 540.18 a7.5 7.5 0 1 0 15 0 a7.5 7.5 0 1 0 -15 0zM577.9 502.68 a7.5 7.5 0 1 0 15 0 a7.5 7.5 0 1 0 -15 0zM577.9 427.68 a7.5 7.5 0 1 0 15 0 a7.5 7.5 0 1 0 -15 0zM707.81 727.68 a7.5 7.5 0 1 0 15 0 a7.5 7.5 0 1 0 -15 0zM772.77 765.18 a7.5 7.5 0 1 0 15 0 a7.5 7.5 0 1 0 -15 0zM772.77 840.18 a7.5 7.5 0 1 0 15 0 a7.5 7.5 0 1 0 -15 0zM707.81 877.68 a7.5 7.5 0 1 0 15 0 a7.5 7.5 0 1 0 -15 0zM642.86 840.18 a7.5 7.5 0 1 0 15 0 a7.5 7.5 0 1 0 -15 0zM642.86 765.18 a7.5 7.5 0 1 0 15 0 a7.5 7.5 0 1 0 -15 0zM837.72 52.68 a7.5 7.5 0 1 0 15 0 a7.5 7.5 0 1 0 -15 0zM902.67 90.18 a7.5 7.5 0 1 0 15 0 a7.5 7.5 0 1 0 -15 0zM902.67 165.18 a7.5 7.5 0 1 0 15 0 a7.5 7.5 0 1 0 -15 0zM837.72 202.68 a7.5 7.5 0 1 0 15 0 a7.5 7.5 0 1 0 -15 0zM772.76 165.18 a7.5 7.5 0 1 0 15 0 a7.5 7.5 0 1 0 -15 0zM772.76 90.18 a7.5 7.5 0 1 0 15 0 a7.5 7.5 0 1 0 -15 0zM837.72 502.68 a7.5 7.5 0 1 0 15 0 a7.5 7.5 0 1 0 -15 0zM902.67 540.18 a7.5 7.5 0 1 0 15 0 a7.5 7.5 0 1 0 -15 0zM902.67 615.18 a7.5 7.5 0 1 0 15 0 a7.5 7.5 0 1 0 -15 0zM837.72 652.68 a7.5 7.5 0 1 0 15 0 a7.5 7.5 0 1 0 -15 0zM772.76 615.18 a7.5 7.5 0 1 0 15 0 a7.5 7.5 0 1 0 -15 0zM772.76 540.18 a7.5 7.5 0 1 0 15 0 a7.5 7.5 0 1 0 -15 0zM902.67 -59.82 a7.5 7.5 0 1 0 15 0 a7.5 7.5 0 1 0 -15 0zM967.63 -22.32 a7.5 7.5 0 1 0 15 0 a7.5 7.5 0 1 0 -15 0zM967.63 52.68 a7.5 7.5 0 1 0 15 0 a7.5 7.5 0 1 0 -15 0zM837.72 -22.32 a7.5 7.5 0 1 0 15 0 a7.5 7.5 0 1 0 -15 0zM1032.58 90.18 a7.5 7.5 0 1 0 15 0 a7.5 7.5 0 1 0 -15 0zM1032.58 165.18 a7.5 7.5 0 1 0 15 0 a7.5 7.5 0 1 0 -15 0zM967.63 202.68 a7.5 7.5 0 1 0 15 0 a7.5 7.5 0 1 0 -15 0zM967.63 727.68 a7.5 7.5 0 1 0 15 0 a7.5 7.5 0 1 0 -15 0zM1032.58 765.18 a7.5 7.5 0 1 0 15 0 a7.5 7.5 0 1 0 -15 0zM1032.58 840.18 a7.5 7.5 0 1 0 15 0 a7.5 7.5 0 1 0 -15 0zM967.63 877.68 a7.5 7.5 0 1 0 15 0 a7.5 7.5 0 1 0 -15 0zM902.67 840.18 a7.5 7.5 0 1 0 15 0 a7.5 7.5 0 1 0 -15 0zM902.67 765.18 a7.5 7.5 0 1 0 15 0 a7.5 7.5 0 1 0 -15 0zM1097.53 52.68 a7.5 7.5 0 1 0 15 0 a7.5 7.5 0 1 0 -15 0zM1162.49 90.18 a7.5 7.5 0 1 0 15 0 a7.5 7.5 0 1 0 -15 0zM1162.49 165.18 a7.5 7.5 0 1 0 15 0 a7.5 7.5 0 1 0 -15 0zM1097.53 202.68 a7.5 7.5 0 1 0 15 0 a7.5 7.5 0 1 0 -15 0zM1032.58 615.18 a7.5 7.5 0 1 0 15 0 a7.5 7.5 0 1 0 -15 0zM1097.53 652.68 a7.5 7.5 0 1 0 15 0 a7.5 7.5 0 1 0 -15 0zM1097.53 727.68 a7.5 7.5 0 1 0 15 0 a7.5 7.5 0 1 0 -15 0zM967.63 652.68 a7.5 7.5 0 1 0 15 0 a7.5 7.5 0 1 0 -15 0zM1162.49 765.18 a7.5 7.5 0 1 0 15 0 a7.5 7.5 0 1 0 -15 0zM1162.49 840.18 a7.5 7.5 0 1 0 15 0 a7.5 7.5 0 1 0 -15 0zM1097.53 877.68 a7.5 7.5 0 1 0 15 0 a7.5 7.5 0 1 0 -15 0zM1162.49 -59.82 a7.5 7.5 0 1 0 15 0 a7.5 7.5 0 1 0 -15 0zM1227.44 -22.32 a7.5 7.5 0 1 0 15 0 a7.5 7.5 0 1 0 -15 0zM1227.44 52.68 a7.5 7.5 0 1 0 15 0 a7.5 7.5 0 1 0 -15 0zM1097.53 -22.32 a7.5 7.5 0 1 0 15 0 a7.5 7.5 0 1 0 -15 0zM1227.44 202.68 a7.5 7.5 0 1 0 15 0 a7.5 7.5 0 1 0 -15 0zM1227.44 277.68 a7.5 7.5 0 1 0 15 0 a7.5 7.5 0 1 0 -15 0zM1162.49 315.18 a7.5 7.5 0 1 0 15 0 a7.5 7.5 0 1 0 -15 0zM1097.53 277.68 a7.5 7.5 0 1 0 15 0 a7.5 7.5 0 1 0 -15 0zM1357.35 52.68 a7.5 7.5 0 1 0 15 0 a7.5 7.5 0 1 0 -15 0zM1422.3 90.18 a7.5 7.5 0 1 0 15 0 a7.5 7.5 0 1 0 -15 0zM1422.3 165.18 a7.5 7.5 0 1 0 15 0 a7.5 7.5 0 1 0 -15 0zM1357.35 202.68 a7.5 7.5 0 1 0 15 0 a7.5 7.5 0 1 0 -15 0zM1292.39 165.18 a7.5 7.5 0 1 0 15 0 a7.5 7.5 0 1 0 -15 0zM1292.39 90.18 a7.5 7.5 0 1 0 15 0 a7.5 7.5 0 1 0 -15 0zM1357.35 277.68 a7.5 7.5 0 1 0 15 0 a7.5 7.5 0 1 0 -15 0zM1422.3 315.18 a7.5 7.5 0 1 0 15 0 a7.5 7.5 0 1 0 -15 0zM1422.3 390.18 a7.5 7.5 0 1 0 15 0 a7.5 7.5 0 1 0 -15 0zM1357.35 427.68 a7.5 7.5 0 1 0 15 0 a7.5 7.5 0 1 0 -15 0zM1292.39 390.18 a7.5 7.5 0 1 0 15 0 a7.5 7.5 0 1 0 -15 0zM1292.39 315.18 a7.5 7.5 0 1 0 15 0 a7.5 7.5 0 1 0 -15 0zM1292.39 615.18 a7.5 7.5 0 1 0 15 0 a7.5 7.5 0 1 0 -15 0zM1357.35 652.68 a7.5 7.5 0 1 0 15 0 a7.5 7.5 0 1 0 -15 0zM1357.35 727.68 a7.5 7.5 0 1 0 15 0 a7.5 7.5 0 1 0 -15 0zM1292.39 765.18 a7.5 7.5 0 1 0 15 0 a7.5 7.5 0 1 0 -15 0zM1227.44 727.68 a7.5 7.5 0 1 0 15 0 a7.5 7.5 0 1 0 -15 0zM1227.44 652.68 a7.5 7.5 0 1 0 15 0 a7.5 7.5 0 1 0 -15 0zM1422.3 765.18 a7.5 7.5 0 1 0 15 0 a7.5 7.5 0 1 0 -15 0zM1422.3 840.18 a7.5 7.5 0 1 0 15 0 a7.5 7.5 0 1 0 -15 0zM1357.35 877.68 a7.5 7.5 0 1 0 15 0 a7.5 7.5 0 1 0 -15 0zM1292.39 840.18 a7.5 7.5 0 1 0 15 0 a7.5 7.5 0 1 0 -15 0zM1487.26 427.68 a7.5 7.5 0 1 0 15 0 a7.5 7.5 0 1 0 -15 0zM1487.26 502.68 a7.5 7.5 0 1 0 15 0 a7.5 7.5 0 1 0 -15 0zM1422.3 540.18 a7.5 7.5 0 1 0 15 0 a7.5 7.5 0 1 0 -15 0zM1357.35 502.68 a7.5 7.5 0 1 0 15 0 a7.5 7.5 0 1 0 -15 0zM1552.21 540.18 a7.5 7.5 0 1 0 15 0 a7.5 7.5 0 1 0 -15 0zM1552.21 615.18 a7.5 7.5 0 1 0 15 0 a7.5 7.5 0 1 0 -15 0zM1487.26 652.68 a7.5 7.5 0 1 0 15 0 a7.5 7.5 0 1 0 -15 0zM1422.3 615.18 a7.5 7.5 0 1 0 15 0 a7.5 7.5 0 1 0 -15 0zM1487.26 727.68 a7.5 7.5 0 1 0 15 0 a7.5 7.5 0 1 0 -15 0z" fill="rgba(210, 214, 218, 1)"></path><path d="M29.84 -4.46L62.75 14.54L62.75 52.54L29.84 71.54L-3.07 52.54L-3.07 14.54zM62.75 394.54L95.66 413.54L95.66 451.54L62.75 470.54L29.84 451.54L29.84 413.54zM62.75 622.54L95.66 641.54L95.66 679.54L62.75 698.54L29.84 679.54L29.84 641.54zM62.75 736.54L95.66 755.54L95.66 793.54L62.75 812.54L29.84 793.54L29.84 755.54zM95.66 109.54L128.57 128.54L128.57 166.54L95.66 185.54L62.75 166.54L62.75 128.54zM95.66 223.54L128.57 242.54L128.57 280.54L95.66 299.54L62.75 280.54L62.75 242.54zM95.66 451.54L128.57 470.54L128.57 508.54L95.66 527.54L62.75 508.54L62.75 470.54zM95.66 565.54L128.57 584.54L128.57 622.54L95.66 641.54L62.75 622.54L62.75 584.54zM128.57 622.54L161.48 641.54L161.48 679.54L128.57 698.54L95.66 679.54L95.66 641.54zM161.48 -4.46L194.39 14.54L194.39 52.54L161.48 71.54L128.57 52.54L128.57 14.54zM194.39 52.54L227.3 71.54L227.3 109.54L194.39 128.54L161.48 109.54L161.48 71.54zM161.48 109.54L194.39 128.54L194.39 166.54L161.48 185.54L128.57 166.54L128.57 128.54zM194.39 280.54L227.3 299.54L227.3 337.54L194.39 356.54L161.48 337.54L161.48 299.54zM194.39 394.54L227.3 413.54L227.3 451.54L194.39 470.54L161.48 451.54L161.48 413.54zM194.39 622.54L227.3 641.54L227.3 679.54L194.39 698.54L161.48 679.54L161.48 641.54zM161.48 679.54L194.39 698.54L194.39 736.54L161.48 755.54L128.57 736.54L128.57 698.54zM227.3 -4.46L260.21 14.54L260.21 52.54L227.3 71.54L194.39 52.54L194.39 14.54zM227.3 223.54L260.21 242.54L260.21 280.54L227.3 299.54L194.39 280.54L194.39 242.54zM260.21 736.54L293.12 755.54L293.12 793.54L260.21 812.54L227.3 793.54L227.3 755.54zM326.03 52.54L358.94 71.54L358.94 109.54L326.03 128.54L293.12 109.54L293.12 71.54zM326.03 166.54L358.94 185.54L358.94 223.54L326.03 242.54L293.12 223.54L293.12 185.54zM293.12 223.54L326.03 242.54L326.03 280.54L293.12 299.54L260.21 280.54L260.21 242.54zM326.03 508.54L358.94 527.54L358.94 565.54L326.03 584.54L293.12 565.54L293.12 527.54zM293.12 793.54L326.03 812.54L326.03 850.54L293.12 869.54L260.21 850.54L260.21 812.54zM358.94 -4.46L391.85 14.54L391.85 52.54L358.94 71.54L326.03 52.54L326.03 14.54zM358.94 223.54L391.85 242.54L391.85 280.54L358.94 299.54L326.03 280.54L326.03 242.54zM358.94 451.54L391.85 470.54L391.85 508.54L358.94 527.54L326.03 508.54L326.03 470.54zM358.94 565.54L391.85 584.54L391.85 622.54L358.94 641.54L326.03 622.54L326.03 584.54zM358.94 679.54L391.85 698.54L391.85 736.54L358.94 755.54L326.03 736.54L326.03 698.54zM358.94 793.54L391.85 812.54L391.85 850.54L358.94 869.54L326.03 850.54L326.03 812.54zM424.76 109.54L457.67 128.54L457.67 166.54L424.76 185.54L391.85 166.54L391.85 128.54zM424.76 451.54L457.67 470.54L457.67 508.54L424.76 527.54L391.85 508.54L391.85 470.54zM457.67 622.54L490.58 641.54L490.58 679.54L457.67 698.54L424.76 679.54L424.76 641.54zM523.49 280.54L556.4 299.54L556.4 337.54L523.49 356.54L490.58 337.54L490.58 299.54zM523.49 394.54L556.4 413.54L556.4 451.54L523.49 470.54L490.58 451.54L490.58 413.54zM523.49 622.54L556.4 641.54L556.4 679.54L523.49 698.54L490.58 679.54L490.58 641.54zM523.49 736.54L556.4 755.54L556.4 793.54L523.49 812.54L490.58 793.54L490.58 755.54zM556.4 -4.46L589.31 14.54L589.31 52.54L556.4 71.54L523.49 52.54L523.49 14.54zM589.31 280.54L622.22 299.54L622.22 337.54L589.31 356.54L556.4 337.54L556.4 299.54zM556.4 337.54L589.31 356.54L589.31 394.54L556.4 413.54L523.49 394.54L523.49 356.54zM556.4 565.54L589.31 584.54L589.31 622.54L556.4 641.54L523.49 622.54L523.49 584.54zM589.31 736.54L622.22 755.54L622.22 793.54L589.31 812.54L556.4 793.54L556.4 755.54zM655.13 52.54L688.04 71.54L688.04 109.54L655.13 128.54L622.22 109.54L622.22 71.54zM655.13 280.54L688.04 299.54L688.04 337.54L655.13 356.54L622.22 337.54L622.22 299.54zM622.22 337.54L655.13 356.54L655.13 394.54L622.22 413.54L589.31 394.54L589.31 356.54zM655.13 394.54L688.04 413.54L688.04 451.54L655.13 470.54L622.22 451.54L622.22 413.54zM622.22 451.54L655.13 470.54L655.13 508.54L622.22 527.54L589.31 508.54L589.31 470.54zM655.13 622.54L688.04 641.54L688.04 679.54L655.13 698.54L622.22 679.54L622.22 641.54zM622.22 793.54L655.13 812.54L655.13 850.54L622.22 869.54L589.31 850.54L589.31 812.54zM720.95 394.54L753.86 413.54L753.86 451.54L720.95 470.54L688.04 451.54L688.04 413.54zM688.04 565.54L720.95 584.54L720.95 622.54L688.04 641.54L655.13 622.54L655.13 584.54zM720.95 622.54L753.86 641.54L753.86 679.54L720.95 698.54L688.04 679.54L688.04 641.54zM753.86 -4.46L786.77 14.54L786.77 52.54L753.86 71.54L720.95 52.54L720.95 14.54zM786.77 394.54L819.68 413.54L819.68 451.54L786.77 470.54L753.86 451.54L753.86 413.54zM786.77 508.54L819.68 527.54L819.68 565.54L786.77 584.54L753.86 565.54L753.86 527.54zM786.77 622.54L819.68 641.54L819.68 679.54L786.77 698.54L753.86 679.54L753.86 641.54zM786.77 736.54L819.68 755.54L819.68 793.54L786.77 812.54L753.86 793.54L753.86 755.54zM852.59 52.54L885.5 71.54L885.5 109.54L852.59 128.54L819.68 109.54L819.68 71.54zM819.68 337.54L852.59 356.54L852.59 394.54L819.68 413.54L786.77 394.54L786.77 356.54zM819.68 565.54L852.59 584.54L852.59 622.54L819.68 641.54L786.77 622.54L786.77 584.54zM852.59 736.54L885.5 755.54L885.5 793.54L852.59 812.54L819.68 793.54L819.68 755.54zM885.5 -4.46L918.41 14.54L918.41 52.54L885.5 71.54L852.59 52.54L852.59 14.54zM885.5 223.54L918.41 242.54L918.41 280.54L885.5 299.54L852.59 280.54L852.59 242.54zM885.5 337.54L918.41 356.54L918.41 394.54L885.5 413.54L852.59 394.54L852.59 356.54zM918.41 394.54L951.32 413.54L951.32 451.54L918.41 470.54L885.5 451.54L885.5 413.54zM885.5 451.54L918.41 470.54L918.41 508.54L885.5 527.54L852.59 508.54L852.59 470.54zM951.32 -4.46L984.23 14.54L984.23 52.54L951.32 71.54L918.41 52.54L918.41 14.54zM984.23 52.54L1017.14 71.54L1017.14 109.54L984.23 128.54L951.32 109.54L951.32 71.54zM951.32 109.54L984.23 128.54L984.23 166.54L951.32 185.54L918.41 166.54L918.41 128.54zM984.23 394.54L1017.14 413.54L1017.14 451.54L984.23 470.54L951.32 451.54L951.32 413.54zM951.32 565.54L984.23 584.54L984.23 622.54L951.32 641.54L918.41 622.54L918.41 584.54zM951.32 679.54L984.23 698.54L984.23 736.54L951.32 755.54L918.41 736.54L918.41 698.54zM984.23 736.54L1017.14 755.54L1017.14 793.54L984.23 812.54L951.32 793.54L951.32 755.54zM1017.14 337.54L1050.05 356.54L1050.05 394.54L1017.14 413.54L984.23 394.54L984.23 356.54zM1050.05 508.54L1082.96 527.54L1082.96 565.54L1050.05 584.54L1017.14 565.54L1017.14 527.54zM1017.14 565.54L1050.05 584.54L1050.05 622.54L1017.14 641.54L984.23 622.54L984.23 584.54zM1050.05 622.54L1082.96 641.54L1082.96 679.54L1050.05 698.54L1017.14 679.54L1017.14 641.54zM1115.87 52.54L1148.78 71.54L1148.78 109.54L1115.87 128.54L1082.96 109.54L1082.96 71.54zM1082.96 109.54L1115.87 128.54L1115.87 166.54L1082.96 185.54L1050.05 166.54L1050.05 128.54zM1115.87 280.54L1148.78 299.54L1148.78 337.54L1115.87 356.54L1082.96 337.54L1082.96 299.54zM1082.96 679.54L1115.87 698.54L1115.87 736.54L1082.96 755.54L1050.05 736.54L1050.05 698.54zM1148.78 451.54L1181.69 470.54L1181.69 508.54L1148.78 527.54L1115.87 508.54L1115.87 470.54zM1214.6 -4.46L1247.51 14.54L1247.51 52.54L1214.6 71.54L1181.69 52.54L1181.69 14.54zM1247.51 166.54L1280.42 185.54L1280.42 223.54L1247.51 242.54L1214.6 223.54L1214.6 185.54zM1247.51 280.54L1280.42 299.54L1280.42 337.54L1247.51 356.54L1214.6 337.54L1214.6 299.54zM1214.6 451.54L1247.51 470.54L1247.51 508.54L1214.6 527.54L1181.69 508.54L1181.69 470.54zM1247.51 508.54L1280.42 527.54L1280.42 565.54L1247.51 584.54L1214.6 565.54L1214.6 527.54zM1247.51 736.54L1280.42 755.54L1280.42 793.54L1247.51 812.54L1214.6 793.54L1214.6 755.54zM1280.42 223.54L1313.33 242.54L1313.33 280.54L1280.42 299.54L1247.51 280.54L1247.51 242.54zM1313.33 280.54L1346.24 299.54L1346.24 337.54L1313.33 356.54L1280.42 337.54L1280.42 299.54zM1280.42 337.54L1313.33 356.54L1313.33 394.54L1280.42 413.54L1247.51 394.54L1247.51 356.54zM1313.33 394.54L1346.24 413.54L1346.24 451.54L1313.33 470.54L1280.42 451.54L1280.42 413.54zM1313.33 508.54L1346.24 527.54L1346.24 565.54L1313.33 584.54L1280.42 565.54L1280.42 527.54zM1280.42 679.54L1313.33 698.54L1313.33 736.54L1280.42 755.54L1247.51 736.54L1247.51 698.54zM1313.33 736.54L1346.24 755.54L1346.24 793.54L1313.33 812.54L1280.42 793.54L1280.42 755.54zM1280.42 793.54L1313.33 812.54L1313.33 850.54L1280.42 869.54L1247.51 850.54L1247.51 812.54zM1379.15 280.54L1412.06 299.54L1412.06 337.54L1379.15 356.54L1346.24 337.54L1346.24 299.54zM1346.24 793.54L1379.15 812.54L1379.15 850.54L1346.24 869.54L1313.33 850.54L1313.33 812.54zM1444.97 166.54L1477.88 185.54L1477.88 223.54L1444.97 242.54L1412.06 223.54L1412.06 185.54zM1412.06 337.54L1444.97 356.54L1444.97 394.54L1412.06 413.54L1379.15 394.54L1379.15 356.54zM1444.97 508.54L1477.88 527.54L1477.88 565.54L1444.97 584.54L1412.06 565.54L1412.06 527.54zM1412.06 679.54L1444.97 698.54L1444.97 736.54L1412.06 755.54L1379.15 736.54L1379.15 698.54zM1444.97 736.54L1477.88 755.54L1477.88 793.54L1444.97 812.54L1412.06 793.54L1412.06 755.54zM1412.06 793.54L1444.97 812.54L1444.97 850.54L1412.06 869.54L1379.15 850.54L1379.15 812.54z" stroke="rgba(223, 227, 231, 0.93)" stroke-width="2"></path></g><defs><mask id="SvgjsMask1809"><rect width="1440" height="800" fill="#ffffff"></rect></mask><linearGradient x1="88.89%" y1="120%" x2="11.11%" y2="-20%" gradientUnits="userSpaceOnUse" id="SvgjsLinearGradient1810"><stop stop-color="#0e2a47" offset="0"></stop><stop stop-color="rgba(181, 74, 29, 1)" offset="0.47"></stop><stop stop-color="rgba(181, 74, 29, 1)" offset="0.9"></stop><stop stop-color="rgba(181, 74, 29, 1)" offset="1"></stop></linearGradient></defs></svg>